<svg width="8" height="8" viewBox="0 0 8 8" fill="none" xmlns="http://www.w3.org/2000/svg">
<path d="M7.47692 1.14517H6.47736C6.46399 1.14054 6.45009 1.13753 6.436 1.13614H5.37174V0.253477C5.3718 0.187144 5.34579 0.12346 5.29945 0.0760839C5.25304 0.0287123 5.18995 0.00138376 5.12369 0H2.60672C2.53948 0 2.47501 0.026666 2.42752 0.0742178C2.37997 0.12177 2.35324 0.186236 2.35324 0.253475V1.13614H1.29439C1.2803 1.13753 1.2664 1.14054 1.25303 1.14517H0.253471C0.162881 1.14517 0.0792062 1.19345 0.0339488 1.27188C-0.0113163 1.35031 -0.0113163 1.44691 0.0339488 1.52535C0.0792139 1.60378 0.162882 1.65211 0.253471 1.65211H1.06783L1.72585 7.7735C1.7329 7.8358 1.76263 7.89328 1.8094 7.93511C1.85611 7.97689 1.91661 7.99994 1.97932 8H5.75462C5.81668 7.9991 5.87627 7.97556 5.92233 7.93391C5.96831 7.89219 5.99751 7.83519 6.00449 7.7735L6.66245 1.66105H7.47687C7.56746 1.66105 7.65114 1.61277 7.69639 1.53434C7.74165 1.45591 7.74166 1.35924 7.69639 1.28087C7.65113 1.20244 7.56746 1.1541 7.47687 1.1541L7.47692 1.14517ZM2.86566 0.506945H4.86472V1.13614H2.86566V0.506945ZM5.52455 7.48941H2.20582L1.57663 1.66111H6.15368L5.52455 7.48941Z" fill="#E41D1D"/>
<path d="M3.86529 6.89624C3.93252 6.89624 3.99699 6.86951 4.04454 6.82202C4.09209 6.77447 4.11876 6.71 4.11876 6.64276V2.50796C4.11876 2.41737 4.07049 2.33369 3.99205 2.28843C3.91362 2.24311 3.81696 2.24311 3.73852 2.28843C3.66009 2.3337 3.61182 2.41737 3.61182 2.50796V6.64276C3.61182 6.71 3.63848 6.77446 3.68603 6.82202C3.73359 6.86951 3.79805 6.89624 3.86529 6.89624H3.86529Z" fill="#E41D1D"/>
<path d="M2.86752 6.89438H2.87829C2.94523 6.89161 3.00831 6.86242 3.05382 6.81324C3.09927 6.76406 3.12347 6.69887 3.121 6.63193L2.96817 2.49713L2.96823 2.49707C2.96684 2.42935 2.93789 2.36506 2.88799 2.3192C2.83803 2.27339 2.77158 2.24997 2.70393 2.25437C2.63699 2.2572 2.57391 2.28639 2.52846 2.33557C2.48295 2.38475 2.45882 2.44994 2.46122 2.51688L2.61405 6.65168C2.61724 6.71687 2.64529 6.77839 2.69248 6.82353C2.73962 6.86861 2.80228 6.89401 2.86752 6.89437L2.86752 6.89438Z" fill="#E41D1D"/>
<path d="M4.85384 6.89439H4.86281C4.92962 6.89589 4.99433 6.8711 5.04308 6.82541C5.09178 6.77966 5.12067 6.71664 5.1235 6.64988L5.27633 2.51507H5.27627C5.27874 2.44814 5.25454 2.38295 5.2091 2.33377C5.16359 2.28459 5.10051 2.2554 5.03357 2.25257C4.96513 2.24553 4.89687 2.26762 4.84553 2.31348C4.79418 2.35929 4.76457 2.42466 4.76391 2.49353L4.60927 6.62833H4.60933C4.6059 6.69617 4.62986 6.76256 4.67585 6.81258C4.72177 6.8626 4.78594 6.8921 4.85384 6.89438L4.85384 6.89439Z" fill="#E41D1D"/>
</svg>
