<svg width="8" height="8" viewBox="0 0 8 8" fill="none" xmlns="http://www.w3.org/2000/svg">
<path d="M7.08506 1.94242C7.22532 1.8069 7.30531 1.62063 7.30701 1.42558C7.30872 1.23053 7.23201 1.04292 7.09407 0.904963C6.95612 0.767009 6.76851 0.690312 6.57345 0.692017C6.3784 0.693721 6.19226 0.773714 6.05673 0.913974L3.99996 2.9715L1.94319 0.913974C1.75849 0.735603 1.49342 0.66779 1.24566 0.735725C0.998011 0.803664 0.804555 0.997129 0.736607 1.24478C0.668668 1.49254 0.736485 1.7576 0.914856 1.94231L2.97163 3.99983L0.914856 6.05735C0.774596 6.19286 0.694604 6.37901 0.692899 6.57407C0.691194 6.76912 0.767898 6.95673 0.905845 7.09468C1.04379 7.23264 1.2314 7.30933 1.42646 7.30763C1.62151 7.30592 1.80766 7.22593 1.94318 7.08567L3.99995 5.02815L6.05672 7.08567C6.19224 7.22593 6.37839 7.30592 6.57344 7.30763C6.76849 7.30933 6.9561 7.23263 7.09406 7.09468C7.23201 6.95673 7.30871 6.76912 7.307 6.57407C7.3053 6.37902 7.22531 6.19287 7.08505 6.05735L5.02827 3.99983L7.08506 1.94242Z" fill="white"/>
</svg>
